<mxfile host="app.diagrams.net" modified="2023-11-01T14:16:46.902Z" agent="Mozilla/5.0 (Windows NT 10.0; Win64; x64) AppleWebKit/537.36 (KHTML, like Gecko) Chrome/117.0.0.0 Safari/537.36 Edg/117.0.2045.47" etag="OSYcpJpkPKxxtb7ZrWAy" version="22.0.8" type="github">
  <diagram name="第 1 页" id="BozkCQJCPHknfL0Oz4gU">
    <mxGraphModel dx="2183" dy="742" grid="1" gridSize="10" guides="1" tooltips="1" connect="1" arrows="1" fold="1" page="1" pageScale="1" pageWidth="827" pageHeight="1169" math="0" shadow="0">
      <root>
        <mxCell id="0" />
        <mxCell id="1" parent="0" />
        <mxCell id="raIWPsBDa8XvjPvGWQIa-1" value="交易数据&lt;br&gt;input(eth)&lt;br&gt;token_transfer" style="shape=datastore;whiteSpace=wrap;html=1;" parent="1" vertex="1">
          <mxGeometry x="250" y="62.5" width="140" height="97.5" as="geometry" />
        </mxCell>
        <mxCell id="raIWPsBDa8XvjPvGWQIa-2" value="源数据" style="rounded=0;whiteSpace=wrap;html=1;" parent="1" vertex="1">
          <mxGeometry x="-50" y="90" width="120" height="60" as="geometry" />
        </mxCell>
        <mxCell id="raIWPsBDa8XvjPvGWQIa-4" value="社交数据" style="shape=datastore;whiteSpace=wrap;html=1;" parent="1" vertex="1">
          <mxGeometry x="460" y="62.5" width="130" height="97.5" as="geometry" />
        </mxCell>
        <mxCell id="raIWPsBDa8XvjPvGWQIa-5" value="tags" style="shape=datastore;whiteSpace=wrap;html=1;" parent="1" vertex="1">
          <mxGeometry x="650" y="63" width="130" height="97" as="geometry" />
        </mxCell>
        <mxCell id="raIWPsBDa8XvjPvGWQIa-7" value="" style="shape=singleArrow;direction=south;whiteSpace=wrap;html=1;" parent="1" vertex="1">
          <mxGeometry x="495" y="190" width="60" height="100" as="geometry" />
        </mxCell>
        <mxCell id="raIWPsBDa8XvjPvGWQIa-8" value="" style="rounded=1;whiteSpace=wrap;html=1;" parent="1" vertex="1">
          <mxGeometry x="115" y="330" width="820" height="110" as="geometry" />
        </mxCell>
        <mxCell id="raIWPsBDa8XvjPvGWQIa-10" value="明细数据" style="text;html=1;align=center;verticalAlign=middle;resizable=0;points=[];autosize=1;strokeColor=none;fillColor=none;" parent="1" vertex="1">
          <mxGeometry x="170" y="308" width="70" height="30" as="geometry" />
        </mxCell>
        <mxCell id="raIWPsBDa8XvjPvGWQIa-11" value="eth转移明细数据" style="rounded=1;whiteSpace=wrap;html=1;" parent="1" vertex="1">
          <mxGeometry x="145" y="350" width="120" height="60" as="geometry" />
        </mxCell>
        <mxCell id="raIWPsBDa8XvjPvGWQIa-12" value="erc20转移明细数据" style="rounded=1;whiteSpace=wrap;html=1;" parent="1" vertex="1">
          <mxGeometry x="305" y="350" width="120" height="60" as="geometry" />
        </mxCell>
        <mxCell id="raIWPsBDa8XvjPvGWQIa-13" value="nft明细数据" style="rounded=1;whiteSpace=wrap;html=1;" parent="1" vertex="1">
          <mxGeometry x="465" y="350" width="120" height="60" as="geometry" />
        </mxCell>
        <mxCell id="raIWPsBDa8XvjPvGWQIa-14" value="社交明细数据" style="rounded=1;whiteSpace=wrap;html=1;" parent="1" vertex="1">
          <mxGeometry x="625" y="350" width="120" height="60" as="geometry" />
        </mxCell>
        <mxCell id="raIWPsBDa8XvjPvGWQIa-15" value="tags明细数据" style="rounded=1;whiteSpace=wrap;html=1;" parent="1" vertex="1">
          <mxGeometry x="785" y="350" width="120" height="60" as="geometry" />
        </mxCell>
        <mxCell id="raIWPsBDa8XvjPvGWQIa-16" value="" style="shape=singleArrow;direction=south;whiteSpace=wrap;html=1;" parent="1" vertex="1">
          <mxGeometry x="260" y="470" width="60" height="100" as="geometry" />
        </mxCell>
        <mxCell id="raIWPsBDa8XvjPvGWQIa-18" value="" style="rounded=1;whiteSpace=wrap;html=1;" parent="1" vertex="1">
          <mxGeometry x="130" y="590" width="460" height="140" as="geometry" />
        </mxCell>
        <mxCell id="raIWPsBDa8XvjPvGWQIa-17" value="交易模型" style="rounded=1;whiteSpace=wrap;html=1;" parent="1" vertex="1">
          <mxGeometry x="160" y="620" width="170" height="70" as="geometry" />
        </mxCell>
        <mxCell id="raIWPsBDa8XvjPvGWQIa-19" value="金融模型" style="text;html=1;align=center;verticalAlign=middle;resizable=0;points=[];autosize=1;strokeColor=none;fillColor=none;" parent="1" vertex="1">
          <mxGeometry x="165" y="568" width="70" height="30" as="geometry" />
        </mxCell>
        <mxCell id="raIWPsBDa8XvjPvGWQIa-20" value="金融套利模型" style="rounded=1;whiteSpace=wrap;html=1;" parent="1" vertex="1">
          <mxGeometry x="375" y="620" width="175" height="70" as="geometry" />
        </mxCell>
        <mxCell id="raIWPsBDa8XvjPvGWQIa-21" value="" style="rounded=1;whiteSpace=wrap;html=1;" parent="1" vertex="1">
          <mxGeometry x="690" y="590" width="240" height="130" as="geometry" />
        </mxCell>
        <mxCell id="raIWPsBDa8XvjPvGWQIa-22" value="社交模型" style="text;html=1;align=center;verticalAlign=middle;resizable=0;points=[];autosize=1;strokeColor=none;fillColor=none;" parent="1" vertex="1">
          <mxGeometry x="685" y="568" width="70" height="30" as="geometry" />
        </mxCell>
        <mxCell id="raIWPsBDa8XvjPvGWQIa-23" value="" style="shape=singleArrow;direction=south;whiteSpace=wrap;html=1;" parent="1" vertex="1">
          <mxGeometry x="265" y="790" width="60" height="100" as="geometry" />
        </mxCell>
        <mxCell id="raIWPsBDa8XvjPvGWQIa-24" value="机器学习" style="rounded=1;whiteSpace=wrap;html=1;" parent="1" vertex="1">
          <mxGeometry x="160" y="930" width="320" height="110" as="geometry" />
        </mxCell>
        <mxCell id="KQLeo4cY0Sl-77oB61r1-2" value="token_transfers" style="swimlane;fontStyle=0;childLayout=stackLayout;horizontal=1;startSize=30;horizontalStack=0;resizeParent=1;resizeParentMax=0;resizeLast=0;collapsible=1;marginBottom=0;whiteSpace=wrap;html=1;" vertex="1" parent="1">
          <mxGeometry x="900" y="80" width="140" height="120" as="geometry" />
        </mxCell>
        <mxCell id="KQLeo4cY0Sl-77oB61r1-3" value="token_address&lt;br&gt;value" style="text;strokeColor=none;fillColor=none;align=left;verticalAlign=middle;spacingLeft=4;spacingRight=4;overflow=hidden;points=[[0,0.5],[1,0.5]];portConstraint=eastwest;rotatable=0;whiteSpace=wrap;html=1;" vertex="1" parent="KQLeo4cY0Sl-77oB61r1-2">
          <mxGeometry y="30" width="140" height="30" as="geometry" />
        </mxCell>
        <mxCell id="KQLeo4cY0Sl-77oB61r1-4" value="from_address" style="text;strokeColor=none;fillColor=none;align=left;verticalAlign=middle;spacingLeft=4;spacingRight=4;overflow=hidden;points=[[0,0.5],[1,0.5]];portConstraint=eastwest;rotatable=0;whiteSpace=wrap;html=1;" vertex="1" parent="KQLeo4cY0Sl-77oB61r1-2">
          <mxGeometry y="60" width="140" height="30" as="geometry" />
        </mxCell>
        <mxCell id="KQLeo4cY0Sl-77oB61r1-5" value="to_address" style="text;strokeColor=none;fillColor=none;align=left;verticalAlign=middle;spacingLeft=4;spacingRight=4;overflow=hidden;points=[[0,0.5],[1,0.5]];portConstraint=eastwest;rotatable=0;whiteSpace=wrap;html=1;" vertex="1" parent="KQLeo4cY0Sl-77oB61r1-2">
          <mxGeometry y="90" width="140" height="30" as="geometry" />
        </mxCell>
        <mxCell id="KQLeo4cY0Sl-77oB61r1-8" value="buy/sell" style="swimlane;fontStyle=0;childLayout=stackLayout;horizontal=1;startSize=26;fillColor=none;horizontalStack=0;resizeParent=1;resizeParentMax=0;resizeLast=0;collapsible=1;marginBottom=0;html=1;" vertex="1" parent="1">
          <mxGeometry x="-210" y="600" width="140" height="164" as="geometry" />
        </mxCell>
        <mxCell id="KQLeo4cY0Sl-77oB61r1-9" value="address" style="text;strokeColor=none;fillColor=none;align=left;verticalAlign=top;spacingLeft=4;spacingRight=4;overflow=hidden;rotatable=0;points=[[0,0.5],[1,0.5]];portConstraint=eastwest;whiteSpace=wrap;html=1;" vertex="1" parent="KQLeo4cY0Sl-77oB61r1-8">
          <mxGeometry y="26" width="140" height="26" as="geometry" />
        </mxCell>
        <mxCell id="KQLeo4cY0Sl-77oB61r1-10" value="token_address" style="text;strokeColor=none;fillColor=none;align=left;verticalAlign=top;spacingLeft=4;spacingRight=4;overflow=hidden;rotatable=0;points=[[0,0.5],[1,0.5]];portConstraint=eastwest;whiteSpace=wrap;html=1;" vertex="1" parent="KQLeo4cY0Sl-77oB61r1-8">
          <mxGeometry y="52" width="140" height="26" as="geometry" />
        </mxCell>
        <mxCell id="KQLeo4cY0Sl-77oB61r1-11" value="price" style="text;strokeColor=none;fillColor=none;align=left;verticalAlign=top;spacingLeft=4;spacingRight=4;overflow=hidden;rotatable=0;points=[[0,0.5],[1,0.5]];portConstraint=eastwest;whiteSpace=wrap;html=1;" vertex="1" parent="KQLeo4cY0Sl-77oB61r1-8">
          <mxGeometry y="78" width="140" height="26" as="geometry" />
        </mxCell>
        <mxCell id="KQLeo4cY0Sl-77oB61r1-12" value="timestamp" style="text;html=1;align=center;verticalAlign=middle;resizable=0;points=[];autosize=1;strokeColor=none;fillColor=none;" vertex="1" parent="KQLeo4cY0Sl-77oB61r1-8">
          <mxGeometry y="104" width="140" height="30" as="geometry" />
        </mxCell>
        <mxCell id="KQLeo4cY0Sl-77oB61r1-13" value="txhash" style="text;html=1;align=center;verticalAlign=middle;resizable=0;points=[];autosize=1;strokeColor=none;fillColor=none;" vertex="1" parent="KQLeo4cY0Sl-77oB61r1-8">
          <mxGeometry y="134" width="140" height="30" as="geometry" />
        </mxCell>
      </root>
    </mxGraphModel>
  </diagram>
</mxfile>
